<svg version="1.1" xmlns="http://www.w3.org/2000/svg" xmlns:xlink="http://www.w3.org/1999/xlink" width="93.77743" height="86.07855" viewBox="0,0,93.77743,86.07855"><defs><linearGradient x1="265.15938" y1="157.47397" x2="265.15938" y2="204.33804" gradientUnits="userSpaceOnUse" id="color-1"><stop offset="0" stop-color="#2ff1ff"/><stop offset="1" stop-color="#2ff1ff" stop-opacity="0"/></linearGradient><linearGradient x1="213.99906" y1="158.46814" x2="213.99906" y2="209.43007" gradientUnits="userSpaceOnUse" id="color-2"><stop offset="0" stop-color="#2ff1ff"/><stop offset="1" stop-color="#2ff1ff" stop-opacity="0"/></linearGradient></defs><g transform="translate(-192.04893,-123.35152)"><g data-paper-data="{&quot;isPaintingLayer&quot;:true}" fill-rule="nonzero" stroke-linejoin="miter" stroke-miterlimit="10" stroke-dasharray="" stroke-dashoffset="0" style="mix-blend-mode: normal"><path d="M257.24088,193.92671c-2.37436,-5.53763 -2.15227,-36.45274 -2.15227,-36.45274h18.83235c0,0 2.83463,32.5604 0.17935,39.25679c-2.65527,6.6964 -9.52952,14.29124 -16.85943,-2.80405z" data-paper-data="{&quot;index&quot;:null}" fill="url(#color-1)" stroke="none" stroke-width="0" stroke-linecap="butt"/><path d="M205.05813,201.1576c-2.65528,-7.28194 0.17936,-42.68947 0.17936,-42.68947h18.83234c0,0 0.22209,33.61838 -2.15227,39.64023c-7.32991,18.59014 -14.20415,10.33119 -16.85943,3.04925z" fill="url(#color-2)" stroke="none" stroke-width="0" stroke-linecap="butt"/><path d="M221.5057,127.45856c0,0 -3.27105,5.79775 -11.2555,9.72519c-7.25785,3.57004 -15.70127,3.48892 -15.70127,3.48892" fill="none" stroke="#000000" stroke-width="5" stroke-linecap="round"/><path d="M283.32636,139.06562c0,0 -8.44342,0.08111 -15.70127,-3.48892c-7.98445,-3.92744 -11.2555,-9.72518 -11.2555,-9.72518" data-paper-data="{&quot;index&quot;:null}" fill="none" stroke="#000000" stroke-width="5" stroke-linecap="round"/><path d="M229.08228,155.80653c0,0 -7.69582,3.47452 -15.77682,3.1296c-8.89001,-0.37945 -14.21891,-4.36899 -14.21891,-4.36899" data-paper-data="{&quot;index&quot;:null}" fill="none" stroke="#000000" stroke-width="5" stroke-linecap="round"/><path d="M278.74596,154.81007c0,0 -5.3289,3.98953 -14.21892,4.36898c-8.081,0.34492 -15.77683,-3.1296 -15.77683,-3.1296" data-paper-data="{&quot;index&quot;:null}" fill="none" stroke="#000000" stroke-width="5" stroke-linecap="round"/></g></g></svg>