<svg version="1.1" xmlns="http://www.w3.org/2000/svg" xmlns:xlink="http://www.w3.org/1999/xlink" width="93.77743" height="44.56131" viewBox="0,0,93.77743,44.56131"><g transform="translate(-194.42747,-154.27252)"><g data-paper-data="{&quot;isPaintingLayer&quot;:true}" fill-rule="nonzero" stroke="#000000" stroke-linejoin="miter" stroke-miterlimit="10" stroke-dasharray="" stroke-dashoffset="0" style="mix-blend-mode: normal"><path d="M201.32017,195.98421c-2.25388,-4.13726 -4.59912,-17.89821 -4.59912,-17.89821c0,0 6.23114,3.32944 18.52216,0.30189c10.94161,-2.69516 18.11454,-5.9784 18.11454,-5.9784c0,0 0.22688,9.39984 -0.47672,13.29396c-0.30532,1.68983 -1.0387,7.8134 -4.67823,11.7713c0,0 -7.8903,-6.21985 -13.87823,-5.71c-6.45219,0.54936 -11.1003,7.71465 -13.0044,4.21946z" data-paper-data="{&quot;index&quot;:null}" fill="#ffffff" stroke-width="2" stroke-linecap="butt"/><path d="M265.97425,191.25295c-5.96755,-0.70965 -14.06426,5.7716 -14.06426,5.7716c-3.50523,-4.07732 -4.03356,-10.22197 -4.28225,-11.92106c-0.57308,-3.91546 -0.0322,-13.30247 -0.0322,-13.30247c0,0 7.8565,2.73274 18.70193,5.79204c12.18297,3.43659 17.72461,1.10563 17.72461,1.10563c0,0 -2.80378,13.67489 -5.19467,17.73452c-2.01984,3.4296 -6.42293,-4.41558 -12.85316,-5.18025z" data-paper-data="{&quot;index&quot;:null}" fill="#ffffff" stroke-width="2" stroke-linecap="butt"/><path d="M223.88424,158.37956c0,0 -3.27105,5.79775 -11.2555,9.72519c-7.25785,3.57004 -15.70127,3.48892 -15.70127,3.48892" fill="none" stroke-width="5" stroke-linecap="round"/><path d="M285.7049,169.98662c0,0 -8.44342,0.08111 -15.70127,-3.48892c-7.98445,-3.92744 -11.2555,-9.72518 -11.2555,-9.72518" data-paper-data="{&quot;index&quot;:null}" fill="none" stroke-width="5" stroke-linecap="round"/></g></g></svg>