<svg version="1.1" xmlns="http://www.w3.org/2000/svg" xmlns:xlink="http://www.w3.org/1999/xlink" width="89.85718" height="36.24492" viewBox="0,0,89.85718,36.24492"><defs><linearGradient x1="239.93735" y1="154.81389" x2="239.93735" y2="173.73921" gradientUnits="userSpaceOnUse" id="color-1"><stop offset="0" stop-color="#cf00ff"/><stop offset="1" stop-color="#220040"/></linearGradient></defs><g transform="translate(-195.00876,-154.81389)"><g data-paper-data="{&quot;isPaintingLayer&quot;:true}" fill-rule="nonzero" stroke-linecap="butt" stroke-linejoin="miter" stroke-miterlimit="10" stroke-dasharray="" stroke-dashoffset="0" style="mix-blend-mode: normal"><path d="M195.00876,168.80363v-13.98974h89.85718v13.98974c0,0 -1.01346,5.01238 -4.66694,4.70751c-1.26067,-0.1052 -3.15168,-6.68952 -4.99295,-6.35975c-1.32585,0.23746 -4.1978,6.50904 -5.742,6.5868c-1.62437,0.0818 -4.06537,-4.82917 -5.87701,-4.68163c-1.86323,0.15174 -4.87314,4.3807 -6.85877,4.41942c-2.73236,0.05328 -5.73682,-4.88623 -8.6041,-4.76606c-2.32303,0.09735 -4.67374,3.578 -7.02523,3.61913c-2.83304,0.04955 -6.19629,-4.00324 -8.96425,-3.90295c-2.08057,0.07539 -5.375,4.43921 -7.34976,4.47907c-3.04714,0.06151 -5.58809,-3.63342 -8.25867,-3.55032c-6.77825,0.21093 -10.42435,2.31846 -13.26715,2.31846c-4.1733,0 -8.25036,-2.86969 -8.25036,-2.86969z" fill="url(#color-1)" stroke="none" stroke-width="0"/><path d="M202.11801,188.69995c-2.36805,-4.07299 -5.095,-17.76341 -5.095,-17.76341c0,0 4.20705,-1.07362 16.40913,-4.44175c10.86244,-2.99835 20.05557,-2.25126 20.05557,-2.25126c0,0 0.48816,9.3899 -0.1069,13.30208c-0.25822,1.69767 -0.82105,7.83926 -4.34912,11.89683c0,0 -4.62452,-6.52661 -10.59596,-5.85047c-6.43442,0.72855 -14.31717,8.54887 -16.31772,5.10798z" data-paper-data="{&quot;index&quot;:null}" fill="#ffffff" stroke="#000000" stroke-width="2"/><path d="M261.923,183.57001c-5.97144,-0.67613 -10.59596,5.85048 -10.59596,5.85048c-3.52807,-4.05757 -4.0909,-10.19916 -4.34912,-11.89683c-0.59506,-3.91218 -0.1069,-13.30208 -0.1069,-13.30208c0,0 9.19313,-0.74709 20.05557,2.25126c12.20208,3.36813 16.40913,4.44175 16.40913,4.44175c0,0 -2.72695,13.69042 -5.095,17.76341c-2.00055,3.44089 -9.88329,-4.37944 -16.31772,-5.10799z" data-paper-data="{&quot;index&quot;:null}" fill="#ffffff" stroke="#000000" stroke-width="2"/></g></g></svg>