<svg version="1.1" xmlns="http://www.w3.org/2000/svg" xmlns:xlink="http://www.w3.org/1999/xlink" width="84.87618" height="42.00976" viewBox="0,0,84.87618,42.00976"><g transform="translate(-197.19948,-155.40971)"><g data-paper-data="{&quot;isPaintingLayer&quot;:true}" fill="#ff0000" fill-rule="nonzero" stroke="#000000" stroke-width="2" stroke-linecap="butt" stroke-linejoin="miter" stroke-miterlimit="10" stroke-dasharray="" stroke-dashoffset="0" style="mix-blend-mode: normal"><path d="M208.45754,194.12727c-1.90307,-1.01884 -7.17047,-4.46172 -9.08275,-8.91957c-2.11976,-4.94143 -0.77936,-10.96134 -0.50658,-12.65673c0.6286,-3.90693 3.96214,-12.69875 3.96214,-12.69875c0,0 2.5105,11.6993 11.93756,17.87289c10.58968,6.93496 16.42015,8.99139 16.42015,8.99139c0,0 -2.46036,2.85183 -5.95953,6.00662c-5.69956,5.13861 -11.46995,4.24216 -16.771,1.40415z" data-paper-data="{&quot;index&quot;:null}"/><path d="M271.48634,193.20853c-5.30104,2.83802 -11.07144,3.73445 -16.771,-1.40415c-3.49917,-3.15479 -5.95953,-6.00662 -5.95953,-6.00662c0,0 5.83046,-2.05643 16.42015,-8.99139c9.42706,-6.17359 11.93756,-17.87289 11.93756,-17.87289c0,0 3.33353,8.79182 3.96214,12.69875c0.27278,1.69539 1.61318,7.71529 -0.50657,12.65673c-1.91229,4.45785 -7.17969,7.90073 -9.08276,8.91958z" data-paper-data="{&quot;index&quot;:null}"/></g></g></svg>