<svg version="1.1" xmlns="http://www.w3.org/2000/svg" xmlns:xlink="http://www.w3.org/1999/xlink" width="76.06858" height="46.45824" viewBox="0,0,76.06858,46.45824"><g transform="translate(-201.18299,-155.96616)"><g data-paper-data="{&quot;isPaintingLayer&quot;:true}" fill="none" fill-rule="nonzero" stroke-width="2" stroke-linecap="round" stroke-linejoin="miter" stroke-miterlimit="10" stroke-dasharray="" stroke-dashoffset="0" style="mix-blend-mode: normal"><path d="M224.06438,163.78168c0,0 -5.28374,-3.24043 -13.45167,-0.53807c-8.17483,2.70465 -8.93483,6.74048 -6.63616,13.09296c2.25055,6.21951 13.25696,-2.84377 19.54977,2.33162c3.33407,2.74204 0.73102,11.79182 -5.82699,14.29861c-5.81976,2.22459 -15.51633,-1.92307 -15.51633,-1.92307" stroke="#00ff22"/><path d="M215.0966,158.0423l-5.20131,41.43115" stroke="#00ff22"/><path d="M211.15077,156.96616l-5.56003,43.40407" stroke="#00ff22"/><path d="M275.33814,165.91198c0,0 -5.28374,-3.24043 -13.45168,-0.53807c-8.17482,2.70464 -8.93482,6.74048 -6.63616,13.09296c2.25056,6.21952 13.25696,-2.84377 19.54977,2.33163c3.33407,2.74203 0.73102,11.79182 -5.82699,14.29861c-5.81976,2.22459 -15.51633,-1.92307 -15.51633,-1.92307" data-paper-data="{&quot;index&quot;:null}" stroke="#00ff22"/><path d="M263.68002,159.09647l5.20132,41.43116" data-paper-data="{&quot;index&quot;:null}" stroke="#00ff22"/><path d="M267.62584,158.02034l5.56002,43.40407" data-paper-data="{&quot;index&quot;:null}" stroke="#00ff22"/></g></g></svg>