<svg version="1.1" xmlns="http://www.w3.org/2000/svg" xmlns:xlink="http://www.w3.org/1999/xlink" width="86.4669" height="48.66432" viewBox="0,0,86.4669,48.66432"><g transform="translate(-197.06408,-165.28841)"><g data-paper-data="{&quot;isPaintingLayer&quot;:true}" fill-rule="nonzero" stroke-linejoin="miter" stroke-miterlimit="10" stroke-dasharray="" stroke-dashoffset="0" style="mix-blend-mode: normal"><path d="" fill="#65471b" stroke="none" stroke-width="1" stroke-linecap="butt"/><path d="M246.1321,192.86265c0,-10.05126 5.76982,-21.97495 15.8211,-21.97495c10.05126,0 19.58406,7.56546 20.57778,21.97495c0.88472,12.82885 -8.14817,18.19945 -18.19945,18.19945c-10.05126,0 -18.19945,-8.14819 -18.19945,-18.19945z" fill="#ffffff" stroke="#000000" stroke-width="2" stroke-linecap="butt"/><path d="M198.18335,194.75328c-1.42727,-17.90128 10.2292,-22.98587 20.28049,-22.98587c10.05126,0 16.11839,12.93461 16.11839,22.98587c0,10.05126 -8.14817,18.19945 -18.19945,18.19945c-10.05126,0 -17.40058,-8.17997 -18.19943,-18.19945z" fill="#ffffff" stroke="#000000" stroke-width="2" stroke-linecap="butt"/><path d="M280.32008,167.87774c0,0 -6.88552,1.08901 -14.48782,0.66342c-7.58433,-0.42458 -16.11115,-2.25275 -16.11115,-2.25275" data-paper-data="{&quot;index&quot;:null}" fill="none" stroke="#000000" stroke-width="2" stroke-linecap="round"/><path d="M230.9339,166.5991c0,0 -8.52682,1.82817 -16.11115,2.25275c-7.60231,0.42558 -14.48782,-0.66342 -14.48782,-0.66342" data-paper-data="{&quot;index&quot;:null}" fill="none" stroke="#000000" stroke-width="2" stroke-linecap="round"/></g></g></svg>