<svg version="1.1" xmlns="http://www.w3.org/2000/svg" xmlns:xlink="http://www.w3.org/1999/xlink" width="85.10358" height="33.50951" viewBox="0,0,85.10358,33.50951"><g transform="translate(-197.59241,-164.73929)"><g data-paper-data="{&quot;isPaintingLayer&quot;:true}" fill-rule="nonzero" stroke-linecap="butt" stroke-linejoin="miter" stroke-miterlimit="10" stroke-dasharray="" stroke-dashoffset="0" style="mix-blend-mode: normal"><path d="M215.25305,195.33349c-6.01104,0.15114 -11.56821,-1.64297 -14.34831,-8.79568c-1.7068,-4.39132 -2.2746,-18.33914 -2.2746,-18.33914c0,0 4.32275,-0.40725 16.89985,-1.83958c11.19629,-1.27507 20.16186,0.89061 20.16186,0.89061c0,0 -0.97598,9.3518 -2.17137,13.1241c-0.51873,1.63698 -2.02849,7.61665 -6.14389,11.07709c-3.71263,3.1218 -9.96561,3.82835 -12.12356,3.8826z" data-paper-data="{&quot;index&quot;:null}" fill="#ffffff" stroke="#000000" stroke-width="2"/><path d="M264.36907,195.54122c-2.15599,-0.10692 -8.38986,-0.96588 -12.02517,-4.17738c-4.0297,-3.55988 -5.39305,-9.57462 -5.87166,-11.22377c-1.10295,-3.80036 -1.85036,-13.17319 -1.85036,-13.17319c0,0 11.14944,-2.22843 22.31127,-0.68042c12.53838,1.73891 14.71623,2.53381 14.71623,2.53381c0,0 -0.9081,13.9298 -2.72158,18.27815c-2.95387,7.08272 -8.55318,8.74064 -14.55874,8.44281z" data-paper-data="{&quot;index&quot;:null}" fill="#ffffff" stroke="#000000" stroke-width="2"/><path d="M231.52043,195.93912c-0.03713,1.48537 -7.4365,2.50526 -16.52694,2.278c-9.09044,-0.22726 -16.4296,-1.61562 -16.39247,-3.10099c0.02997,-1.19869 4.85458,-2.09425 11.49332,-2.27584c1.5877,-0.04343 3.09981,0.31269 4.85426,0.35655c1.95417,0.04885 4.00677,-0.20735 5.7432,-0.06175c6.34112,0.53169 10.85778,1.63797 10.82862,2.80402z" fill="#2ff1ff" stroke="#404040" stroke-width="0"/><path d="M257.83371,192.93378c1.73643,-0.14559 3.78903,0.1106 5.7432,0.06175c1.75445,-0.04386 3.26656,-0.39998 4.85426,-0.35655c6.63874,0.18159 11.46336,1.07715 11.49332,2.27584c0.03714,1.48537 -7.30202,2.87372 -16.39246,3.10098c-9.09045,0.22726 -16.48981,-0.79263 -16.52695,-2.278c-0.02915,-1.16606 4.4875,-2.27233 10.82863,-2.80402z" data-paper-data="{&quot;index&quot;:null}" fill="#2ff1ff" stroke="#404040" stroke-width="0"/></g></g></svg>