<svg version="1.1" xmlns="http://www.w3.org/2000/svg" xmlns:xlink="http://www.w3.org/1999/xlink" width="88.24702" height="35.33791" viewBox="0,0,88.24702,35.33791"><g transform="translate(-195.85706,-163.16089)"><g data-paper-data="{&quot;isPaintingLayer&quot;:true}" fill-rule="nonzero" stroke-linecap="butt" stroke-linejoin="miter" stroke-miterlimit="10" stroke-dasharray="" stroke-dashoffset="0" style="mix-blend-mode: normal"><path d="M217.65818,195.16068c-5.91464,1.0828 -11.68301,0.17347 -15.54017,-6.46073c-2.36805,-4.07299 -5.095,-17.76341 -5.095,-17.76341c0,0 4.20705,-1.07362 16.40913,-4.44175c10.86244,-2.99835 20.05557,-2.25126 20.05557,-2.25126c0,0 0.48816,9.3899 -0.1069,13.30208c-0.25822,1.69767 -0.82105,7.83926 -4.34912,11.89683c-3.18278,3.66049 -9.25017,5.32952 -11.37352,5.71824z" data-paper-data="{&quot;index&quot;:null}" fill="#ffffff" stroke="#000000" stroke-width="2"/><path d="M262.34184,195.37066c-2.12335,-0.38873 -8.19074,-2.05775 -11.37352,-5.71824c-3.52807,-4.05757 -4.0909,-10.19916 -4.34912,-11.89683c-0.59506,-3.91218 -0.1069,-13.30208 -0.1069,-13.30208c0,0 11.34539,-0.7471 22.20783,2.25126c12.20207,3.36813 14.25687,4.44175 14.25687,4.44175c0,0 -2.72695,13.69042 -5.095,17.76341c-3.85716,6.6342 -9.62553,7.54353 -15.54017,6.46073z" data-paper-data="{&quot;index&quot;:null}" fill="#ffffff" stroke="#000000" stroke-width="2"/><path d="M231.52043,195.93912c-0.03713,1.48537 -7.4365,2.50526 -16.52694,2.278c-9.09044,-0.22726 -16.4296,-1.61562 -16.39247,-3.10099c0.02997,-1.19869 4.85458,-2.09425 11.49332,-2.27584c1.5877,-0.04343 3.09981,0.31269 4.85426,0.35655c1.95417,0.04885 4.00677,-0.20735 5.7432,-0.06175c6.34112,0.53169 10.85778,1.63797 10.82862,2.80402z" fill="#404040" stroke="#404040" stroke-width="0.5"/><path d="M257.83371,192.93378c1.73643,-0.14559 3.78903,0.1106 5.7432,0.06175c1.75445,-0.04386 3.26656,-0.39998 4.85426,-0.35655c6.63874,0.18159 11.46336,1.07715 11.49332,2.27584c0.03714,1.48537 -7.30202,2.87372 -16.39246,3.10098c-9.09045,0.22726 -16.48981,-0.79263 -16.52695,-2.278c-0.02915,-1.16606 4.4875,-2.27233 10.82863,-2.80402z" data-paper-data="{&quot;index&quot;:null}" fill="#404040" stroke="#404040" stroke-width="0.5"/></g></g></svg>